<?xml version="1.0" standalone="no"?>
<!DOCTYPE svg PUBLIC "-//W3C//DTD SVG 20010904//EN"
 "http://www.w3.org/TR/2001/REC-SVG-20010904/DTD/svg10.dtd">
<svg version="1.0" xmlns="http://www.w3.org/2000/svg"
 width="1969.000000pt" height="1969.000000pt" viewBox="0 0 1969.000000 1969.000000"
 preserveAspectRatio="xMidYMid meet">

<g transform="translate(0.000000,1969.000000) scale(0.100000,-0.100000)"
fill="#000000" stroke="none">
<path d="M9447 19193 c-145 -274 -401 -754 -568 -1068 -166 -313 -313 -596
-326 -627 -25 -62 -31 -149 -14 -206 15 -50 30 -74 434 -684 205 -309 421
-635 479 -723 58 -88 306 -464 552 -835 246 -371 549 -828 673 -1015 124 -187
432 -653 685 -1035 254 -382 463 -703 466 -712 4 -17 -17 -18 -329 -19 -184
-1 -354 -2 -379 -4 -25 -1 -531 -5 -1125 -9 -594 -4 -1181 -9 -1305 -11 -124
-3 -650 -7 -1170 -10 -1299 -7 -1623 -13 -1686 -30 -53 -15 -117 -60 -154
-108 -12 -15 -124 -220 -249 -455 -898 -1685 -1012 -1902 -1027 -1962 -37
-147 35 -291 179 -355 l60 -28 556 7 c306 3 642 8 746 11 105 3 426 7 715 10
289 3 624 7 745 10 121 3 450 7 730 10 281 3 607 7 725 10 118 3 442 7 720 10
278 3 615 7 750 10 135 3 461 7 725 10 264 3 595 7 735 10 140 3 476 7 745 10
270 3 589 7 710 10 121 3 452 7 735 10 283 3 538 8 565 12 98 11 166 49 219
123 35 48 918 1702 950 1779 12 29 19 72 20 116 1 93 -11 117 -231 453 -98
150 -274 420 -391 600 -117 180 -355 543 -527 807 -173 264 -354 543 -404 620
-50 77 -181 277 -290 445 -110 168 -295 451 -411 630 -116 179 -353 541 -525
805 -172 264 -464 712 -649 995 -184 283 -478 734 -653 1002 -175 269 -489
750 -698 1070 -209 321 -413 634 -453 696 l-74 112 -358 0 -358 0 -265 -497z
m792 216 c91 -140 225 -344 296 -454 72 -110 214 -328 317 -485 103 -157 210
-321 238 -365 28 -44 157 -243 288 -442 130 -200 330 -506 444 -680 439 -674
858 -1315 1130 -1732 156 -238 319 -489 363 -557 72 -112 402 -618 691 -1059
114 -175 1224 -1877 1346 -2065 37 -58 68 -111 68 -118 0 -15 -886 -1682 -903
-1699 -9 -8 -171 -13 -572 -17 -308 -4 -652 -8 -765 -11 -113 -3 -428 -7 -700
-10 -272 -3 -603 -7 -735 -10 -132 -3 -460 -7 -730 -10 -269 -3 -602 -7 -740
-10 -137 -3 -464 -7 -725 -10 -261 -3 -585 -7 -720 -10 -135 -3 -468 -7 -740
-10 -272 -3 -605 -7 -740 -10 -135 -3 -461 -7 -725 -10 -264 -3 -597 -7 -740
-10 -143 -3 -467 -8 -719 -11 -446 -6 -459 -6 -452 12 16 42 1196 2257 1209
2271 14 14 772 23 3017 38 426 3 924 7 1105 10 182 3 785 8 1340 11 556 3
1014 10 1018 14 8 7 -64 118 -668 1030 -137 206 -335 506 -440 665 -257 389
-686 1037 -1490 2250 -771 1164 -955 1443 -961 1459 -3 7 216 428 487 937 270
508 543 1022 607 1142 63 120 120 216 125 214 5 -1 84 -117 176 -258z"/>
<path d="M4674 8750 c-105 -21 -191 -94 -214 -181 -15 -53 -7 -6547 7 -6609 6
-25 16 -79 23 -120 13 -81 45 -177 91 -278 16 -35 29 -67 29 -71 0 -4 24 -48
53 -97 261 -442 772 -823 1312 -980 125 -36 341 -80 475 -95 95 -12 674 -14
3260 -14 2960 0 3153 1 3274 18 391 54 707 161 1001 340 302 184 580 449 728
694 62 101 134 264 166 374 66 224 61 -45 61 3564 l0 3281 -33 54 c-27 46 -43
60 -101 90 l-69 35 -5011 1 c-2756 1 -5030 -2 -5052 -6z m9976 -3474 c0 -3198
0 -3246 -20 -3348 -58 -302 -185 -532 -426 -773 -340 -340 -788 -547 -1309
-606 -178 -21 -6212 -21 -6390 0 -508 57 -916 239 -1269 564 -296 273 -459
599 -486 972 -11 148 -14 6418 -3 6428 3 4 2233 7 4955 7 l4948 0 0 -3244z"/>
<path d="M6897 6803 c-4 -3 -7 -1023 -7 -2265 l0 -2258 2810 0 2810 0 -2 2263
-3 2262 -2801 3 c-1540 1 -2804 -1 -2807 -5z m5318 -2263 l0 -2025 -2517 -3
-2518 -2 0 2030 0 2030 2518 -2 2517 -3 0 -2025z"/>
<path d="M4771 169 c-29 -5 -73 -18 -97 -28 -44 -20 -128 -91 -145 -123 -9
-17 170 -18 5106 -18 l5116 0 -21 30 c-34 48 -104 99 -167 123 l-58 22 -4840
1 c-2819 1 -4862 -2 -4894 -7z"/>
</g>
</svg>
